# xmcd
#
# Track frame offsets:
#  150
#  16029
#  29600
#  45163
#  55885
#  71526
#  85079
#  95837
#  110621
#  122557
#  135079
#  152167
#
# Disc length: 2179 seconds
#
# Revision: 0
# Processed by: cddbd v1.4PL0 Copyright (c) Steve Scherf et al.
# Submitted via: AltoMP3_Maker 3.0
#
DISCID=8f08810c
DTITLE=Mike Broome - As Good As It's Gonna Get
DYEAR=1900
DGENRE=
TTITLE0=Working Man Blues
TTITLE1=Your Still To Blame
TTITLE2=You Don't See Caboose's Anymore
TTITLE3=Crazy Heart
TTITLE4=I Heard You Calling My Name
TTITLE5=Mr. Engineer
TTITLE6=Turkey Knob
TTITLE7=Greenville Trestle
TTITLE8=Sitting On Top of the World
TTITLE9=He's The Rock That I Stand On
TTITLE10=Song For Life
TTITLE11=I'll Take The Blame
EXTD=
EXTT0=
EXTT1=
EXTT2=
EXTT3=
EXTT4=
EXTT5=
EXTT6=
EXTT7=
EXTT8=
EXTT9=
EXTT10=
EXTT11=
PLAYORDER=
